<svg width="12" height="12" viewBox="0 0 12 12" fill="none" xmlns="http://www.w3.org/2000/svg">
<path d="M4.42105 0C3.72442 0 3.15789 0.566526 3.15789 1.26316V2.52632H0V10.7368C0 11.4335 0.566526 12 1.26316 12H10.1053C10.8019 12 11.3684 11.4335 11.3684 10.7368V2.52632H8.21053V1.26316C8.21053 0.566526 7.644 0 6.94737 0H4.42105ZM4.42105 1.26316H6.94737V2.52632H4.42105V1.26316ZM1.26316 3.78947H10.1053L10.1065 10.7368H1.26316V3.78947ZM3.78947 5.05263C3.44084 5.05263 3.15789 5.33558 3.15789 5.68421C3.15789 6.03284 3.44084 6.31579 3.78947 6.31579C4.1381 6.31579 4.42105 6.03284 4.42105 5.68421C4.42105 5.33558 4.1381 5.05263 3.78947 5.05263ZM7.57895 5.05263C7.23032 5.05263 6.94737 5.33558 6.94737 5.68421C6.94737 6.03284 7.23032 6.31579 7.57895 6.31579C7.92758 6.31579 8.21053 6.03284 8.21053 5.68421C8.21053 5.33558 7.92758 5.05263 7.57895 5.05263Z" fill="black"/>
</svg>
