<svg width="12" height="12" viewBox="0 0 12 12" fill="none" xmlns="http://www.w3.org/2000/svg">
<path d="M4.42105 0C3.7307 0 3.15789 0.572802 3.15789 1.26316V2.52632H0V10.7368C0 11.4347 0.565263 12 1.26316 12H10.1053C10.8032 12 11.3684 11.4347 11.3684 10.7368V2.52632H8.21053V1.26316C8.21053 0.572802 7.63772 0 6.94737 0H4.42105ZM4.42105 1.26316H6.94737V2.52632H4.42105V1.26316ZM3.78947 3.78947C4.1381 3.78947 4.42105 4.07242 4.42105 4.42105C4.42105 4.76968 4.1381 5.05263 3.78947 5.05263C3.44084 5.05263 3.15789 4.76968 3.15789 4.42105C3.15789 4.07242 3.44084 3.78947 3.78947 3.78947ZM7.57895 3.78947C7.92758 3.78947 8.21053 4.07242 8.21053 4.42105C8.21053 4.76968 7.92758 5.05263 7.57895 5.05263C7.23032 5.05263 6.94737 4.76968 6.94737 4.42105C6.94737 4.07242 7.23032 3.78947 7.57895 3.78947Z" fill="white"/>
</svg>
