<svg width="12" height="12" viewBox="0 0 12 12" fill="none" xmlns="http://www.w3.org/2000/svg">
<path d="M10.2 0.600006C9.21299 0.600006 8.4 1.413 8.4 2.40001C8.4 2.67592 8.46854 2.93517 8.58164 3.16993L6.35156 5.40001H3.4875C3.23708 4.70561 2.5759 4.20001 1.8 4.20001C0.812994 4.20001 0 5.013 0 6.00001C0 6.98701 0.812994 7.80001 1.8 7.80001C2.5759 7.80001 3.23708 7.2944 3.4875 6.60001H6.35156L8.58164 8.83008C8.46854 9.06484 8.4 9.32409 8.4 9.60001C8.4 10.587 9.21299 11.4 10.2 11.4C11.187 11.4 12 10.587 12 9.60001C12 8.613 11.187 7.80001 10.2 7.80001C9.92409 7.80001 9.66484 7.86854 9.43008 7.98165L7.44844 6.00001L9.43008 4.01837C9.66484 4.13147 9.92409 4.20001 10.2 4.20001C11.187 4.20001 12 3.38701 12 2.40001C12 1.413 11.187 0.600006 10.2 0.600006ZM10.2 1.80001C10.5385 1.80001 10.8 2.06153 10.8 2.40001C10.8 2.73848 10.5385 3.00001 10.2 3.00001C9.86152 3.00001 9.6 2.73848 9.6 2.40001C9.6 2.06153 9.86152 1.80001 10.2 1.80001ZM1.8 5.40001C2.13848 5.40001 2.4 5.66153 2.4 6.00001C2.4 6.33848 2.13848 6.60001 1.8 6.60001C1.46152 6.60001 1.2 6.33848 1.2 6.00001C1.2 5.66153 1.46152 5.40001 1.8 5.40001ZM10.2 9.00001C10.5385 9.00001 10.8 9.26153 10.8 9.60001C10.8 9.93848 10.5385 10.2 10.2 10.2C9.86152 10.2 9.6 9.93848 9.6 9.60001C9.6 9.26153 9.86152 9.00001 10.2 9.00001Z" fill="black"/>
</svg>
