<svg width="12" height="12" viewBox="0 0 12 12" fill="none" xmlns="http://www.w3.org/2000/svg">
<path id="icon-design-outline" d="M5.99968 0C2.54428 0 -0.228689 2.92013 0.0149111 6.42773C0.235111 9.60114 3.00306 12 6.18366 12H6.59968C7.26268 12 7.79968 11.463 7.79968 10.8V9C7.79968 8.337 8.33668 7.8 8.99968 7.8H10.7997C11.4627 7.8 11.9997 7.263 11.9997 6.6V6.18398C11.9997 3.00338 9.60138 0.235434 6.42858 0.0152344C6.28458 0.00503437 6.14128 0 5.99968 0ZM5.99968 1.2C6.11368 1.2 6.22841 1.20392 6.34421 1.21172C8.84261 1.38512 10.7997 3.56918 10.7997 6.18398V6.6H8.99968C7.67608 6.6 6.59968 7.6764 6.59968 9V10.8H6.18366C3.56886 10.8 1.3842 8.84233 1.2114 6.34453C1.1178 4.99453 1.57134 3.71035 2.48874 2.72695C3.40734 1.74235 4.65448 1.2 5.99968 1.2ZM6.29968 1.8C6.06098 1.8 5.83206 1.89482 5.66328 2.0636C5.4945 2.23239 5.39968 2.46131 5.39968 2.7C5.39968 2.93869 5.4945 3.16761 5.66328 3.3364C5.83206 3.50518 6.06098 3.6 6.29968 3.6C6.53837 3.6 6.76729 3.50518 6.93607 3.3364C7.10486 3.16761 7.19968 2.93869 7.19968 2.7C7.19968 2.46131 7.10486 2.23239 6.93607 2.0636C6.76729 1.89482 6.53837 1.8 6.29968 1.8ZM3.89968 2.4C3.66098 2.4 3.43206 2.49482 3.26328 2.6636C3.0945 2.83239 2.99968 3.06131 2.99968 3.3C2.99968 3.5387 3.0945 3.76761 3.26328 3.9364C3.43206 4.10518 3.66098 4.2 3.89968 4.2C4.13837 4.2 4.36729 4.10518 4.53607 3.9364C4.70486 3.76761 4.79968 3.5387 4.79968 3.3C4.79968 3.06131 4.70486 2.83239 4.53607 2.6636C4.36729 2.49482 4.13837 2.4 3.89968 2.4ZM8.69968 3C8.46098 3 8.23206 3.09482 8.06328 3.2636C7.8945 3.43239 7.79968 3.66131 7.79968 3.9C7.79968 4.13869 7.8945 4.36761 8.06328 4.5364C8.23206 4.70518 8.46098 4.8 8.69968 4.8C8.93837 4.8 9.16729 4.70518 9.33607 4.5364C9.50486 4.36761 9.59968 4.13869 9.59968 3.9C9.59968 3.66131 9.50486 3.43239 9.33607 3.2636C9.16729 3.09482 8.93837 3 8.69968 3ZM2.69968 4.8C2.46098 4.8 2.23206 4.89482 2.06328 5.0636C1.8945 5.23239 1.79968 5.46131 1.79968 5.7C1.79968 5.93869 1.8945 6.16761 2.06328 6.3364C2.23206 6.50518 2.46098 6.6 2.69968 6.6C2.93837 6.6 3.16729 6.50518 3.33607 6.3364C3.50486 6.16761 3.59968 5.93869 3.59968 5.7C3.59968 5.46131 3.50486 5.23239 3.33607 5.0636C3.16729 4.89482 2.93837 4.8 2.69968 4.8ZM4.79968 7.2C4.48142 7.2 4.17619 7.32643 3.95115 7.55147C3.7261 7.77652 3.59968 8.08174 3.59968 8.4C3.59968 8.71826 3.7261 9.02349 3.95115 9.24853C4.17619 9.47357 4.48142 9.6 4.79968 9.6C5.11794 9.6 5.42316 9.47357 5.6482 9.24853C5.87325 9.02349 5.99968 8.71826 5.99968 8.4C5.99968 8.08174 5.87325 7.77652 5.6482 7.55147C5.42316 7.32643 5.11794 7.2 4.79968 7.2Z" fill="black"/>
</svg>
