<svg width="12" height="12" viewBox="0 0 12 12" fill="none" xmlns="http://www.w3.org/2000/svg">
<path id="icon-design" d="M6.42834 0.0148691C2.7773 -0.238334 -0.238336 2.7767 0.0148664 6.42774C0.235069 9.60117 3.0035 12 6.18413 12H6.59994C7.26295 12 7.79995 11.463 7.79995 10.8V8.99997C7.79995 8.33696 8.33696 7.79995 8.99996 7.79995H10.8C11.463 7.79995 12 7.26295 12 6.59994V6.18414C12 3.0035 9.60117 0.235072 6.42834 0.0148691ZM5.09992 1.19988C5.59673 1.19988 5.99993 1.60309 5.99993 2.09989C5.99993 2.5967 5.59673 2.9999 5.09992 2.9999C4.60312 2.9999 4.19991 2.5967 4.19991 2.09989C4.19991 1.60309 4.60312 1.19988 5.09992 1.19988ZM2.09989 7.79995C1.60308 7.79995 1.19988 7.39675 1.19988 6.89994C1.19988 6.40314 1.60308 5.99993 2.09989 5.99993C2.59669 5.99993 2.9999 6.40314 2.9999 6.89994C2.9999 7.39675 2.59669 7.79995 2.09989 7.79995ZM2.6999 4.79992C2.20309 4.79992 1.79989 4.39672 1.79989 3.89991C1.79989 3.40311 2.20309 2.9999 2.6999 2.9999C3.1967 2.9999 3.59991 3.40311 3.59991 3.89991C3.59991 4.39672 3.1967 4.79992 2.6999 4.79992ZM5.39993 10.8C4.73692 10.8 4.19991 10.263 4.19991 9.59997C4.19991 8.93697 4.73692 8.39996 5.39993 8.39996C6.06293 8.39996 6.59994 8.93697 6.59994 9.59997C6.59994 10.263 6.06293 10.8 5.39993 10.8ZM8.09995 3.59991C7.60315 3.59991 7.19994 3.1967 7.19994 2.6999C7.19994 2.20309 7.60315 1.79989 8.09995 1.79989C8.59676 1.79989 8.99996 2.20309 8.99996 2.6999C8.99996 3.1967 8.59676 3.59991 8.09995 3.59991ZM9.89997 6.59994C9.40317 6.59994 8.99996 6.19674 8.99996 5.69993C8.99996 5.20313 9.40317 4.79992 9.89997 4.79992C10.3968 4.79992 10.8 5.20313 10.8 5.69993C10.8 6.19674 10.3968 6.59994 9.89997 6.59994Z" fill="white"/>
</svg>
