<svg width="12" height="12" viewBox="0 0 12 12" fill="none" xmlns="http://www.w3.org/2000/svg">
<path d="M4.49648 0L4.20234 1.51406C3.70784 1.70055 3.25375 1.96196 2.85586 2.28867L1.40156 1.78711L0 4.21289L1.16484 5.22539C1.12006 5.50033 1.09687 5.75511 1.09687 6C1.09687 6.24526 1.12076 6.49958 1.16484 6.77461V6.77578L0 7.78828L1.40156 10.2129L2.85469 9.7125C3.25261 10.0394 3.70774 10.2993 4.20234 10.4859L4.49648 12H7.29727L7.59141 10.4859C8.08623 10.2993 8.53982 10.0383 8.93789 9.71133L10.3922 10.2129L11.7926 7.78828L10.6289 6.77461C10.6737 6.49967 10.6969 6.24489 10.6969 6C10.6969 5.75547 10.6736 5.50102 10.6289 5.22656V5.22539L11.7937 4.21172L10.3922 1.78711L8.93906 2.2875C8.54114 1.96061 8.08601 1.70066 7.59141 1.51406L7.29727 0H4.49648ZM5.48555 1.2H6.3082L6.54141 2.4L7.16719 2.63672C7.54439 2.77888 7.88328 2.97405 8.17734 3.21563L8.69531 3.63984L9.84844 3.24375L10.2598 3.95508L9.33867 4.75664L9.44414 5.41641V5.41758C9.48083 5.64254 9.49687 5.83126 9.49687 6C9.49687 6.16874 9.48083 6.35743 9.44414 6.58242L9.3375 7.24219L10.2586 8.04375L9.84727 8.75625L8.69531 8.35898L8.17617 8.78438C7.88211 9.02595 7.54439 9.22112 7.16719 9.36328H7.16602L6.54023 9.6L6.30703 10.8H5.48555L5.25234 9.6L4.62656 9.36328C4.24936 9.22112 3.91047 9.02595 3.61641 8.78438L3.09844 8.36016L1.94531 8.75625L1.53398 8.04492L2.45625 7.24219L2.34961 6.58477V6.58359C2.31345 6.35765 2.29687 6.1684 2.29687 6C2.29687 5.83126 2.31292 5.64257 2.34961 5.41758L2.45625 4.75781L1.53398 3.95625L1.94531 3.24375L3.09844 3.64102L3.61641 3.21563C3.91047 2.97405 4.24936 2.77888 4.62656 2.63672L5.25234 2.4L5.48555 1.2ZM5.89687 3.6C4.57896 3.6 3.49687 4.68209 3.49687 6C3.49687 7.31791 4.57896 8.4 5.89687 8.4C7.21479 8.4 8.29687 7.31791 8.29687 6C8.29687 4.68209 7.21479 3.6 5.89687 3.6ZM5.89687 4.8C6.56376 4.8 7.09687 5.33311 7.09687 6C7.09687 6.66689 6.56376 7.2 5.89687 7.2C5.22999 7.2 4.69687 6.66689 4.69687 6C4.69687 5.33311 5.22999 4.8 5.89687 4.8Z" fill="black"/>
</svg>
