<svg width="10" height="12" viewBox="0 0 10 12" fill="none" xmlns="http://www.w3.org/2000/svg">
<path d="M1.2 0C0.537 0 0 0.537 0 1.2V2.4C0 2.7312 0.2688 3 0.6 3H9C9.3312 3 9.6 2.7312 9.6 2.4V1.2C9.6 0.537 9.063 0 8.4 0H1.2ZM0.6 4.2C0.2688 4.2 0 4.4688 0 4.8V7.2C0 7.5312 0.2688 7.8 0.6 7.8H9C9.3312 7.8 9.6 7.5312 9.6 7.2V4.8C9.6 4.4688 9.3312 4.2 9 4.2H0.6ZM0.6 9C0.2688 9 0 9.2688 0 9.6V10.8C0 11.463 0.537 12 1.2 12H8.4C9.063 12 9.6 11.463 9.6 10.8V9.6C9.6 9.2688 9.3312 9 9 9H0.6Z" fill="white"/>
</svg>
