<svg width="12" height="12" viewBox="0 0 12 12" fill="none" xmlns="http://www.w3.org/2000/svg">
<path d="M10.2 0.600006C9.2076 0.600006 8.4 1.40761 8.4 2.40001C8.4 2.67706 8.46813 2.9364 8.58047 3.1711L6.35156 5.40001H3.48984C3.24128 4.70326 2.58097 4.20001 1.8 4.20001C0.8076 4.20001 0 5.00761 0 6.00001C0 6.99241 0.8076 7.80001 1.8 7.80001C2.58097 7.80001 3.24128 7.29676 3.48984 6.60001H6.35156L8.58047 8.82891C8.46813 9.06361 8.4 9.32295 8.4 9.60001C8.4 10.5924 9.2076 11.4 10.2 11.4C11.1924 11.4 12 10.5924 12 9.60001C12 8.60761 11.1924 7.80001 10.2 7.80001C9.92295 7.80001 9.6636 7.86814 9.42891 7.98047L7.44844 6.00001L9.42891 4.01954C9.6636 4.13187 9.92295 4.20001 10.2 4.20001C11.1924 4.20001 12 3.39241 12 2.40001C12 1.40761 11.1924 0.600006 10.2 0.600006Z" fill="white"/>
</svg>
